# xmcd
# Copyright (C) 1995-1998 Ti Kan
#
# Track frame offsets:
#       150
#       16559
#       25908
#       40723
#       66301
#       83491
#       99897
#       115712
#       136641
#       149231
#       167242
#
# Disc length: 2462 seconds
#
# Revision: 0
# Processed by: cddbd v1.5PL3 Copyright (c) Steve Scherf et al.
# Submitted via: CD-Transfer v1.0
#
DISCID=81099c0b
DTITLE=Eleven 25 - Maybe
DYEAR=2004
DGENRE=
TTITLE0=No Return
TTITLE1=Morning Sun
TTITLE2=Maybe
TTITLE3=A Minute In Gold
TTITLE4=Open Up
TTITLE5=Desperado
TTITLE6=Heartbeat
TTITLE7=I Could Never
TTITLE8=7th Floor
TTITLE9=Easily
TTITLE10=Anyone
EXTD=
EXTT0=
EXTT1=
EXTT2=
EXTT3=
EXTT4=
EXTT5=
EXTT6=
EXTT7=
EXTT8=
EXTT9=
EXTT10=
PLAYORDER=
